<svg xmlns="http://www.w3.org/2000/svg" viewBox="0 0 100 100" width="100" height="100">
  <defs>
    <filter id="shadow" x="-10%" y="-10%" width="120%" height="120%">
      <feDropShadow dx="0" dy="4" stdDeviation="3" flood-color="#ffb5c5" flood-opacity="0.3"/>
    </filter>
  </defs>
  <!-- Background Sakura/Flower Shape -->
  <path d="M 50 15 
           C 58 10, 68 20, 65 30 
           C 75 27, 85 37, 80 47 
           C 88 53, 83 67, 72 67 
           C 72 78, 58 83, 50 75 
           C 42 83, 28 78, 28 67 
           C 17 67, 12 53, 20 47 
           C 15 37, 25 27, 35 30 
           C 32 20, 42 10, 50 15 Z" 
        fill="#ffb5c5" stroke="#ffdbe2" stroke-width="3" filter="url(#shadow)"/>
  
  <!-- Inner Circle -->
  <circle cx="50" cy="50" r="22" fill="#ffffff" stroke="#ffdbe2" stroke-width="2"/>
  
  <!-- Text -->
  <text x="50" y="55" font-family="'Quicksand', sans-serif" font-weight="bold" font-size="16" fill="#5c4a4f" text-anchor="middle">OP</text>
  
  <!-- Blushing Dots -->
  <circle cx="40" cy="52" r="2" fill="#fca1a7" opacity="0.7"/>
  <circle cx="60" cy="52" r="2" fill="#fca1a7" opacity="0.7"/>
</svg>
